<svg id="Product_Icons" data-name="Product Icons" xmlns="http://www.w3.org/2000/svg" viewBox="0 0 32 32"><title>Icon_32px_ContainerOptimizedOS_Flat</title><path d="M16,2.67A13.33,13.33,0,1,0,29.33,16h0A13.33,13.33,0,0,0,16,2.67Zm0,24a10.61,10.61,0,0,1-5.57-1.57l4.77-2.76h0v-6l-5.19-3v6l3.67,2.12L9.06,24.16A10.69,10.69,0,0,1,7.85,9.09a10.5,10.5,0,0,1,2.93-2.41V12h0L16,15l5.2-3L16,9l-3.67,2.12V6A10.66,10.66,0,0,1,26.74,16v.1L22,13.35h0l-5.2,3v6l5.2-3V15.12l4.6,2.66A10.72,10.72,0,0,1,16,26.71Z"/></svg>